Coordinates
version=1
nRows=32
nColumns=12
inDegrees=yes

Units are S.I. units (second, meters, Newtons, ...)
Angles are in degrees

endheader
time	SC_y	SC_z	SC_x	AC_y	AC_z	AC_x	GH_y	GH_z	GH_yy	EL_x	PS_y
       0.0              -44.52          18.19          3.034          37.13          5.619         -4.067          135.4          59.87         -140.5          123.3          153.2
   0.01321              -44.52           18.2          3.042          37.14          5.617         -4.064          135.4          59.87         -140.5          123.3          153.2
   0.02642              -44.52           18.2          3.051          37.14          5.616         -4.061          135.4          59.87         -140.5          123.3          153.1
   0.03963              -44.52           18.2          3.061          37.14          5.614         -4.057          135.4          59.87         -140.5          123.3          153.1
   0.05284              -44.52          18.21          3.071          37.15          5.612         -4.053          135.4          59.87         -140.5          123.2          153.1
   0.06605              -44.52          18.21          3.082          37.15          5.609         -4.049          135.3          59.87         -140.5          123.2          153.1
   0.07926              -44.52          18.22          3.094          37.15          5.607         -4.045          135.3          59.87         -140.5          123.2          153.0
   0.09247              -44.52          18.22          3.107          37.16          5.605          -4.04          135.3          59.87         -140.5          123.2          153.0
    0.1057              -44.52          18.22           3.12          37.16          5.602         -4.035          135.3          59.86         -140.5          123.2          153.0
    0.1189              -44.51          18.23          3.134          37.16          5.599          -4.03          135.2          59.86         -140.5          123.2          153.0
    0.1321              -44.51          18.24           3.15          37.17          5.596         -4.024          135.2          59.86         -140.5          123.1          152.9
    0.1453              -44.51          18.24          3.167          37.17          5.593         -4.017          135.2          59.86         -140.5          123.1          152.9
    0.1585              -44.51          18.25          3.184          37.18          5.589         -4.011          135.1          59.86         -140.4          123.1          152.8
    0.1717              -44.51          18.25          3.204          37.18          5.585         -4.003          135.1          59.86         -140.4          123.1          152.8
    0.1849              -44.51          18.26          3.225          37.19          5.581         -3.996          135.1          59.85         -140.4          123.0          152.8
    0.1981              -44.51          18.27          3.248           37.2          5.576         -3.987          135.0          59.85         -140.4          123.0          152.7
    0.2114              -44.51          18.28          3.272           37.2          5.571         -3.978          135.0          59.85         -140.4          123.0          152.7
    0.2246              -44.51          18.29          3.299          37.21          5.566         -3.968          134.9          59.85         -140.4          122.9          152.6
    0.2378               -44.5           18.3          3.329          37.22           5.56         -3.957          134.9          59.84         -140.4          122.9          152.5
     0.251               -44.5          18.31          3.361          37.23          5.554         -3.945          134.8          59.84         -140.3          122.9          152.5
    0.2642               -44.5          18.32          3.396          37.24          5.547         -3.931          134.7          59.84         -140.3          122.8          152.4
    0.2774               -44.5          18.34          3.435          37.25          5.539         -3.917          134.7          59.83         -140.3          122.8          152.3
    0.2906               -44.5          18.35          3.478          37.27           5.53         -3.901          134.6          59.83         -140.3          122.7          152.2
    0.3038              -44.49          18.37          3.526          37.28          5.521         -3.883          134.5          59.82         -140.2          122.6          152.1
     0.317              -44.49          18.39          3.579           37.3           5.51         -3.863          134.4          59.82         -140.2          122.6          152.0
    0.3302              -44.49          18.41          3.638          37.31          5.499         -3.841          134.3          59.81         -140.2          122.5          151.8
    0.3435              -44.48          18.43          3.704          37.33          5.485         -3.816          134.2           59.8         -140.1          122.4          151.7
    0.3567              -44.48          18.46          3.779          37.35          5.471         -3.788          134.0           59.8         -140.1          122.3          151.5
    0.3699              -44.47          18.49          3.863          37.38          5.454         -3.756          133.8          59.79         -140.0          122.2          151.4
    0.3831              -44.47          18.53          3.958          37.41          5.435          -3.72          133.7          59.78         -140.0          122.1          151.1
    0.3963              -44.46          18.56          4.067          37.44          5.413         -3.679          133.5          59.77         -139.9          121.9          150.9
    0.4095              -44.46          18.61          4.192          37.48          5.388         -3.632          133.2          59.75         -139.8          121.8          150.6
